<?xml version="1.0" encoding="UTF-8"?> <!-- Generator: Adobe Illustrator 24.1.1, SVG Export Plug-In . SVG Version: 6.00 Build 0) --> <svg xmlns="http://www.w3.org/2000/svg" xmlns:xlink="http://www.w3.org/1999/xlink" version="1.1" id="Layer_1" x="0px" y="0px" viewBox="0 0 512 512" style="enable-background:new 0 0 512 512;" xml:space="preserve"> <style type="text/css"> .st0{fill:#85C73F;} </style> <path class="st0" d="M162.3,505c-33.7-35.1-37.2-82.3-37.4-98.5l-90.6,38.5C13.5,454,0,474.3,0,497v15l169.6,0 C167.1,509.8,164.6,507.5,162.3,505z"></path> <path class="st0" d="M477.7,445.1l-90.6-38.5c-0.1,16.1-3.6,63.3-37.4,98.5c-2.3,2.4-4.8,4.8-7.3,7l169.6,0v-15 C512,474.3,498.5,454,477.7,445.1z"></path> <path class="st0" d="M357.1,384.3c-26.4,25.5-62.2,39.6-101.1,39.6s-74.7-14.1-101.1-39.6v19.2c-0.1,4.9-0.6,50,29,80.8 c17.7,18.4,41.9,27.7,72.1,27.7c30.1,0,54.4-9.3,72.1-27.7c29.6-30.8,29.1-75.9,29-80.8V384.3z"></path> <path class="st0" d="M114,286.8V179.7c0-10.6,1-21,3-31.1h-13c-24.8,0-45,20.2-45,45v64.5c0,24.8,20.2,45,45,45h11 C114.3,297.8,114,292.3,114,286.8z"></path> <path class="st0" d="M408,148.7h-13.4c2.3,10.7,3.4,21.8,3.4,33.1v105.1c0,5.5-0.3,11-1,16.3h11c24.8,0,45-20.2,45-45v-64.5 C453,168.8,432.9,148.7,408,148.7z"></path> <path class="st0" d="M256,0c-89.5,0-142.6,40.9-155.4,118.7c1.1,0,2.2-0.1,3.4-0.1h22.3c6.5-15.3,14.6-27,24.5-35.6 c12.2-10.4,26.6-15.7,42.8-15.7c17.4,0,33.3,6.2,46.2,11.2C245,80.6,253,83.7,256,84c2.9-0.3,10.6-3.4,15.8-5.4 c12.6-5,28.3-11.2,45.5-11.2c37,0,57.2,27.6,67.7,51.3H408c1.1,0,2.2,0,3.4,0.1C398.6,40.9,345.5,0,256,0z"></path> <path class="st0" d="M341.2,324.1c-14,9.3-30.3,14.3-47.2,14.3h-23c-8.3,0-15-6.7-15-15s6.7-15,15-15h23c10.9,0,21.4-3.2,30.5-9.2 l43.5-29v-88.4c0-17.2-3.3-34.2-10.1-50C329.8,66.6,284.4,114,256,114c-29.3,0-79.1-50.3-105.1,24.1c-4.7,13.4-6.9,27.5-6.9,41.7 v107.1c0,59.1,47,107,112,107c57.3,0,100.5-37.1,110.1-86.3L341.2,324.1z"></path> </svg> 