<?xml version="1.0" encoding="UTF-8"?> <!-- Generator: Adobe Illustrator 24.1.1, SVG Export Plug-In . SVG Version: 6.00 Build 0) --> <svg xmlns="http://www.w3.org/2000/svg" xmlns:xlink="http://www.w3.org/1999/xlink" version="1.1" id="Capa_1" x="0px" y="0px" viewBox="0 0 612 612" style="enable-background:new 0 0 612 612;" xml:space="preserve"> <style type="text/css"> .st0{fill:#FFFFFF;} </style> <path class="st0" d="M290.1,612c-4.3-2.9-9.5-4.9-12.6-8.7c-8.2-10.3-6.1-22.7,4.3-30.9c1-0.8,2-1.6,2.1-1.7 c-1.6-7.6-3.2-14.5-4.4-21.4c-8.9-50.7-17.7-101.4-26.5-152.1c-1.3-7.2-2.7-14.4-3.8-21.7c-0.5-3.3-1.8-4.5-5.2-5.1 c-19.2-2.9-38.4-6.3-55.7-15.4c-7.1-3.7-13.4-9.1-20-13.7c-1.2-0.8-2.1-1.9-4-3.6c-1.9,8.9-3.4,17.2-5.5,25.2 c-2.6,10.2-4.6,20.8-9.1,30.1c-2.9,5.9-9.5,10.4-15.3,14.4c-3.4,2.3-4.9,4.2-4.9,8.3c0.1,54.3,0,108.5,0.1,162.8 c0,10.6-3.1,19.7-11.9,25.9c-8.9,6.4-18.8,7.2-28.7,2.7c-9.4-4.2-15-11.7-16.2-22.1c-0.4-3.1-0.4-6.2-0.4-9.3 c0-56.7,0.1-113.4,0.2-170.1c0-3.5-0.9-5.9-3.5-8.5c-10.6-10.7-14.5-23.6-11.3-38.5c8-36.7,16.9-73.3,23.6-110.3 c5.7-31.3,39.2-42,61.1-35.6c22.6,6.7,35.8,21.7,39.2,45.5c1.8,12.7,4.7,25.2,7.6,37.8c3.3,14.6,14,21.9,27.5,25.5 c11.9,3.2,24.1,5.8,36.3,7.7c17.5,2.6,24.1,19,17.4,31.4c-0.5,1-0.4,2.5-0.2,3.7c5.8,32.5,11.6,65.1,17.4,97.6 c1.8,10.2,3.5,20.5,5.3,31.2c2,0.1,3.7,0.3,5.4,0.3c42.7,0,85.4,0,128.1,0.1c4.2,0,5.9-1.1,6.8-5.4c1.5-8.1,3.9-16,6.1-24.8 c-5.1,0-9.3,0-13.5,0c-9.5,0-18.9,0.2-28.4-0.1c-4-0.1-5.1,1.3-4.9,5.1c0.3,5.5,0.1,11,0.1,16.8c-26.1,0-51.6,0-77.9,0 c0-6.9,0.1-13.7-0.1-20.4c-0.1-2.5-1.3-4.9-1.5-7.5c-0.3-3.4-0.4-6.9,0-10.3c0.2-1.8,1.5-3.5,2.5-5.7c3.5-0.2,7.4-0.5,11.3-0.5 c37.5,0,75-0.1,112.4,0.1c4.1,0,6.2-1,7-5.2c1.6-8.1,3.8-16.1,5.9-24.9c-3.2,0-5.8-0.4-8.2,0.2c-1.3,0.3-3.1,2.1-3.2,3.4 c-0.4,4.7-0.2,9.4-0.2,14.7c-1.9,0.1-3.5,0.2-5,0.2c-18.7,0-37.5-0.1-56.2,0.1c-4.1,0-5.5-1.3-5.2-5.3c0.3-4.2,0.1-8.4,0.1-12.2 c-0.8-0.5-1.1-0.8-1.3-0.8c-8.8-0.8-8.8-0.8-8.8,8.1c0,3.2,0,6.4,0,9.9c-22.2,0-43.8,0-65.8,0c0-38.5,0-77.1,0-116 c21.6,0,43.4,0,65.7,0c0,24.9,0,49.7,0,74.9c3.6,0,6.6,0,10.3,0c0-2.1,0-4,0-5.9c0-21.3,0.1-42.7-0.1-64c0-4.4,1.3-5.5,5.6-5.5 c18.7,0.2,37.5,0.1,56.2,0.1c1.3,0,2.6,0.1,4.4,0.3c0.1,2,0.3,3.9,0.3,5.8c0,21.5,0.1,43-0.1,64.5c0,4.1,1.3,5.4,5.3,5.2 c6-0.3,12.1-0.1,18.1-0.1c11,0.1,15.7,5.8,13.2,16.4c-5.3,22.2-10.9,44.3-16.3,66.4c-2.6,10.7-5.2,21.5-7.9,32.2 c-2.8,10.9-5.5,12.9-16.7,12.9c-44.2,0-88.3,0-132.5,0c-1.9,0-3.8,0-6.5,0c1.3,8.8,2.5,17.1,3.9,25.4c1.5,9.1,1.6,9,10.8,9 c38.6,0,77.2,0,115.9,0c8,0,12.4,2.5,13.2,8.7c0.5,3.7-1.2,7.6-1.9,11.4c-0.4,0-0.9,0-1.3,0c2.2,2.1,4.8,4,6.5,6.4 c8.9,12.7,4.4,27.8-9.9,33.7c-0.9,0.4-1.7,0.9-2.5,1.4c-3.3,0-6.5,0-9.8,0c-1-0.5-2-1-3-1.5c-11.1-4.9-16.5-15.4-13.1-26.6 c1.1-3.7,3.5-7.1,5.4-10.8c-33.8,0-67.5,0-102,0c1,1.4,1.7,2.2,2.3,3.1c7,9.1,6.4,21.2-1.8,29.3c-2.8,2.7-6.7,4.4-10,6.5 C296.6,612,293.4,612,290.1,612z"></path> <path class="st0" d="M419.2,0c1.3,2,3,3.9,3.7,6c5.9,18.4,11.6,36.9,17.3,55.4c2,6.6,1.1,8.7-5.6,10.9C417.5,78,400.2,83.3,383,88.7 c-14.9,4.7-29.8,9.4-44.7,13.9c-8.2,2.5-10.4,0.9-12.8-7c-5.4-17.6-10.9-35.1-16.3-52.6c-2.3-7.4-1.1-9.5,6.3-11.8 c30.9-9.7,61.8-19.4,92.6-29.2c1.5-0.5,2.8-1.4,4.2-2.1C414.6,0,416.9,0,419.2,0z"></path> <path class="st0" d="M562.4,90.6c-1.6,4.3-3.6,9.9-5.8,15.5c-8.8,22.6-17.7,45.1-26.5,67.7c-2.2,5.5-5.9,7.2-11.7,5 c-23.2-9-46.4-18-69.5-27.1c-8.3-3.2-16.7-6.4-25-9.8c-6.4-2.6-7.6-5.8-5-12.4c10.3-26.4,20.5-52.7,30.8-79.1 c2.5-6.5,6.4-8.2,13-5.6c31,12.1,62.1,24.2,93.1,36.3C559.5,82.5,562.4,84.6,562.4,90.6z"></path> <path class="st0" d="M356.6,111.7c15.5,0,31,0,46.4,0c9.7,0,11.6,1.8,11.6,11.3c0,27.9,0,55.7,0,83.6c0,9-2.2,11.2-11.3,11.2 c-31.1,0-62.2,0-93.4,0c-9.7,0-11.9-2.2-11.9-11.6c0-27.7,0-55.4,0-83.1c0-9.2,2.1-11.3,11.1-11.3 C325,111.7,340.8,111.7,356.6,111.7z"></path> <path class="st0" d="M110,159.4c0-29.8,24.3-53.9,54.2-53.9c29.8,0.1,54.2,24.3,54.3,53.9c0,29.6-25.2,54.7-54.6,54.3 C134,213.5,110,189.2,110,159.4z"></path> <path class="st0" d="M411.9,297.9c-2,0.1-3.8,0.2-5.5,0.2c-35,0-70-0.1-105,0.1c-4.6,0-5.8-1.3-5.7-5.8c0.2-18.4,0.1-36.8,0.1-55.2 c0-1.6,0-3.2,0-5.1c38.9,0,77.4,0,116.1,0C411.9,254,411.9,275.5,411.9,297.9z"></path> <path class="st0" d="M424,182.1c22,0,43.6,0,65.5,0c0,38.6,0,76.9,0,115.6c-1.3,0.2-2.6,0.4-3.8,0.4c-19.2,0-38.4,0-57.6,0.1 c-2.9,0-4.5-0.5-4.5-3.9c0.1-36.6,0.1-73.3,0.1-109.9C423.6,183.7,423.8,183.1,424,182.1z"></path> </svg> 