<?xml version="1.0" encoding="UTF-8"?> <!-- Generator: Adobe Illustrator 24.1.1, SVG Export Plug-In . SVG Version: 6.00 Build 0) --> <svg xmlns="http://www.w3.org/2000/svg" xmlns:xlink="http://www.w3.org/1999/xlink" version="1.1" id="Layer_1" x="0px" y="0px" viewBox="0 0 512 512" style="enable-background:new 0 0 512 512;" xml:space="preserve"> <style type="text/css"> .st0{fill:#85C73F;} </style> <g id="Page-1"> <g id="_x30_29---Eco-Friendly-Fabric"> <path id="Shape" class="st0" d="M194.8,102.5l4.3-5.4c24.6-30.8,45.3-57.6,56.1-71.8c1.5-2,4.4-2.4,6.4-0.9 c44.6,34.7,85.2,98.3,76.7,166.4c-2.5,20.4-7.8,40.4-15.8,59.3c-16,6.4-31.1,14.9-44.8,25.3c-20.4,15.2-37.4,34.6-49.6,56.9 c-0.1,0.3-0.3,0.5-0.4,0.8c-2.7,5.4-5,10.9-6.9,16.6c-1.8-2.7-3.7-5.4-5.8-8c-6.2-43-12.9-147.6,48.3-236 c2.7-4.1,1.6-9.7-2.4-12.5s-9.7-1.9-12.6,2.1c-55.4,79.9-58.4,171.8-54,225.1c-12.1-9.8-25.6-17.9-39.9-24 C108,210.2,160.2,145.5,194.8,102.5L194.8,102.5z M45.2,398.7c-11.1-32.3-24-64-38.6-94.9c-0.6-1.3-0.5-2.8,0.1-4 c0.7-1.3,1.9-2.1,3.3-2.4c67.9-10.6,168.8,7.1,201.1,71.8c7.4,15.7,12.8,32.3,16.3,49.3c-27.3-38.3-74.3-77.5-170.7-98.2 c-4.9-1.1-9.8,2.1-10.9,7c-1.1,4.9,2.1,9.8,7,10.9c128.5,27.5,162.1,90.6,176.4,118.2l0.1,0.1v0.1c0.1,0.2,0.2,0.4,0.3,0.6 c2.3,4.4,4.4,8.9,6.2,13.6c0.6,6.2,1.1,11.4,1.4,15.3C101.4,519,57.8,436.3,45.2,398.7L45.2,398.7z M466.9,370.9 c-24,64-115.2,136.8-211.3,114.8c-0.6-9.3-2.2-27.2-5.6-47.8c7.5-28.4,31.5-107.9,218.6-154.7c3.2-0.7,5.8-3.2,6.8-6.3 c0.9-3.2,0.1-6.6-2.2-9c-2.3-2.4-5.7-3.3-8.9-2.4c-117.6,29.4-190.2,75.1-221.1,139c-2.5-9.9-5.5-19.6-9.1-29.2 c1.4-12,5-23.7,10.6-34.5c0.1-0.2,0.2-0.5,0.3-0.7c11-19.7,26.1-36.8,44.3-50.2c13.4-10.1,28.2-18.3,43.9-24.3h0.1 c61.4-24.1,137.5-22.9,170.5-20.9c1.4,0.1,2.7,0.8,3.5,1.9s1,2.6,0.6,3.9C500.4,274.1,485.8,320.5,466.9,370.9z"></path> </g> </g> </svg> 