<?xml version="1.0" encoding="UTF-8"?> <!-- Generator: Adobe Illustrator 24.1.0, SVG Export Plug-In . SVG Version: 6.00 Build 0) --> <svg xmlns="http://www.w3.org/2000/svg" xmlns:xlink="http://www.w3.org/1999/xlink" version="1.1" id="Layer_1" x="0px" y="0px" viewBox="0 0 600 250" style="enable-background:new 0 0 600 250;" xml:space="preserve"> <style type="text/css"> .st0{fill:#8DC73F;stroke:#8DC73F;stroke-miterlimit:10;} .st1{fill:#85C73F;stroke:#85C73F;stroke-width:10;stroke-miterlimit:10;} </style> <g> <g> <path class="st0" d="M81.05,177.83c-4.32,0-8.32-0.42-11.87-1.24c-3.56-0.82-6.76-1.84-9.53-3.03c-2.78-1.18-5.2-2.38-7.2-3.56 c-1.98-1.16-3.53-2.05-4.64-2.66l-0.66-0.36l3.82-7.08l0.7,0.48c1.6,1.1,3.55,2.24,5.8,3.39c2.24,1.15,4.68,2.22,7.26,3.18 c2.55,0.95,5.26,1.73,8.07,2.34c5.96,1.28,11.96,1.25,18.29-0.53c3.36-0.94,6.47-2.39,9.25-4.32c2.75-1.91,5.04-4.4,6.81-7.41 c1.76-2.97,2.65-6.57,2.65-10.7c0-3.92-0.79-7.29-2.35-10.01c-1.57-2.75-3.69-5.12-6.29-7.03c-2.65-1.95-5.69-3.67-9.02-5.11 c-3.36-1.45-6.9-2.86-10.51-4.19c-3.66-1.34-7.22-2.74-10.58-4.14c-3.45-1.44-6.58-3.16-9.32-5.13c-2.78-1.99-5.03-4.38-6.7-7.1 c-1.7-2.76-2.56-6.19-2.56-10.19c0-3.67,0.77-7.19,2.29-10.49c1.51-3.29,3.68-6.2,6.45-8.66c2.76-2.45,6.11-4.4,9.96-5.8 c5.77-2.11,12.56-2.64,20.32-1.57c2.62,0.36,5.24,0.83,7.78,1.39c2.57,0.56,4.98,1.21,7.18,1.93s4.06,1.45,5.53,2.18l0.66,0.33 l-2.91,6.39l-0.68-0.29c-3.14-1.31-6.93-2.51-11.28-3.55c-8.25-2-16.73-2.22-23.2-0.02c-3.06,1.03-5.68,2.43-7.79,4.15 c-2.09,1.7-3.72,3.72-4.84,6.01c-1.12,2.27-1.68,4.76-1.68,7.38c0,3.08,0.77,5.71,2.3,7.81c1.56,2.15,3.67,4.04,6.27,5.61 c2.66,1.6,5.7,3.05,9.05,4.3c3.41,1.28,6.93,2.57,10.55,3.89c3.66,1.35,7.24,2.88,10.62,4.55c3.46,1.7,6.6,3.79,9.34,6.23 c2.76,2.45,5.01,5.41,6.68,8.8c1.68,3.41,2.53,7.61,2.53,12.49c0,4.78-0.87,9.15-2.59,13c-1.72,3.86-4.23,7.19-7.47,9.91 c-3.21,2.7-7.11,4.8-11.57,6.26C91.53,177.09,86.51,177.83,81.05,177.83z M49.21,166.37c1.05,0.59,2.39,1.36,4.02,2.32 c1.94,1.15,4.3,2.31,7.02,3.47c2.68,1.15,5.81,2.14,9.28,2.94c3.44,0.8,7.32,1.2,11.52,1.2c5.3,0,10.16-0.7,14.44-2.1 c4.27-1.4,8-3.41,11.06-5.98c3.06-2.57,5.43-5.72,7.06-9.36c1.63-3.65,2.46-7.82,2.46-12.38c0-4.65-0.8-8.62-2.37-11.82 c-1.58-3.21-3.71-6.01-6.32-8.33c-2.64-2.34-5.67-4.36-9-6c-3.34-1.65-6.86-3.15-10.48-4.48s-7.14-2.62-10.55-3.9 c-3.43-1.28-6.56-2.77-9.3-4.42c-2.78-1.67-5.04-3.7-6.72-6.02c-1.72-2.36-2.59-5.29-2.59-8.71c0-2.86,0.62-5.57,1.84-8.06 s2.99-4.69,5.25-6.53c2.25-1.84,5.03-3.32,8.26-4.41c6.75-2.29,15.51-2.09,24.05-0.02c4.11,0.99,7.75,2.12,10.82,3.35l1.68-3.69 c-1.29-0.59-2.85-1.19-4.66-1.78c-2.15-0.7-4.52-1.34-7.04-1.89c-2.51-0.55-5.08-1.01-7.66-1.36c-7.5-1.03-14.05-0.53-19.59,1.49 c-3.67,1.33-6.85,3.19-9.47,5.51c-2.61,2.32-4.66,5.06-6.08,8.16c-1.42,3.09-2.15,6.4-2.15,9.85c0,3.71,0.79,6.87,2.33,9.39 c1.57,2.55,3.68,4.79,6.29,6.66c2.65,1.9,5.68,3.57,9.02,4.96c3.34,1.4,6.88,2.79,10.52,4.12s7.21,2.75,10.59,4.22 c3.44,1.49,6.58,3.27,9.32,5.29c2.77,2.03,5.03,4.56,6.71,7.5c1.69,2.96,2.55,6.58,2.55,10.77c0,4.4-0.96,8.26-2.86,11.47 c-1.88,3.2-4.32,5.85-7.26,7.88c-2.92,2.03-6.19,3.56-9.71,4.55c-6.56,1.83-12.82,1.88-19.02,0.54c-2.88-0.62-5.67-1.42-8.29-2.4 c-2.64-0.99-5.14-2.08-7.42-3.25c-1.99-1.02-3.76-2.03-5.26-3.02L49.21,166.37z"></path> <path class="st0" d="M81.05,182.83c-4.69,0-9.07-0.46-13-1.37c-3.83-0.88-7.33-2-10.38-3.31c-2.94-1.25-5.56-2.54-7.77-3.85 c-1.95-1.14-3.47-2.01-4.51-2.59l-5.02-2.73l8.83-16.36l5.29,3.62c1.43,0.98,3.19,2.01,5.25,3.06c2.08,1.07,4.34,2.06,6.73,2.95 c2.29,0.85,4.77,1.57,7.39,2.14c5.43,1.17,10.63,1.02,15.87-0.46c2.83-0.79,5.44-2.01,7.75-3.61c2.15-1.49,3.95-3.46,5.35-5.84 c1.3-2.2,1.96-4.94,1.96-8.17c0-3.04-0.57-5.57-1.69-7.52c-1.23-2.15-2.88-4-4.91-5.49c-2.34-1.72-5.05-3.25-8.04-4.55 c-3.25-1.4-6.7-2.78-10.25-4.09c-3.58-1.31-7.21-2.73-10.77-4.22c-3.81-1.59-7.28-3.5-10.32-5.69c-3.31-2.37-6.02-5.24-8.04-8.54 c-2.19-3.55-3.3-7.86-3.3-12.81c0-4.39,0.92-8.62,2.75-12.58c1.79-3.91,4.38-7.38,7.67-10.31c3.23-2.87,7.13-5.14,11.57-6.76 c6.53-2.39,14.17-3,22.71-1.82c2.73,0.38,5.48,0.87,8.17,1.46c2.7,0.59,5.28,1.28,7.66,2.06c2.45,0.8,4.53,1.63,6.2,2.45 l4.99,2.49l-6.93,15.22l-5.17-2.21c-2.89-1.21-6.43-2.32-10.48-3.29c-7.75-1.88-15.19-1.93-20.43-0.15 c-2.49,0.84-4.59,1.94-6.24,3.29c-1.53,1.25-2.71,2.7-3.51,4.33c-0.78,1.58-1.17,3.32-1.17,5.18c0,2.01,0.45,3.64,1.34,4.87 c1.17,1.62,2.79,3.05,4.81,4.27c2.41,1.45,5.18,2.76,8.21,3.9c3.4,1.28,6.91,2.56,10.52,3.88c3.87,1.43,7.61,3.03,11.12,4.76 c3.87,1.9,7.39,4.25,10.45,6.98c3.25,2.88,5.88,6.36,7.84,10.32c2.02,4.1,3.04,9.05,3.04,14.7c0,5.49-1.02,10.54-3.02,15.04 c-2.03,4.55-5,8.49-8.82,11.7c-3.68,3.1-8.14,5.52-13.23,7.18C92.54,182.02,87,182.83,81.05,182.83z"></path> </g> </g> <g> <g> <path class="st0" d="M164.95,177.68c-4.37,0-8.53-0.85-12.38-2.51c-3.84-1.66-7.24-3.93-10.1-6.73c-2.87-2.82-5.14-6.17-6.74-9.96 c-1.61-3.79-2.43-7.93-2.43-12.3c0-4.36,0.85-8.53,2.51-12.38c1.66-3.83,3.92-7.23,6.73-10.09c2.8-2.86,6.15-5.15,9.95-6.82 c3.8-1.66,7.94-2.51,12.31-2.51c6.67,0,12.47,1.99,17.23,5.91c4.72,3.89,8.27,8.91,10.55,14.92l0.27,0.71l-0.71,0.28 c-3.66,1.42-7.64,3-11.91,4.73c-4.28,1.74-8.67,3.51-13.15,5.35c-4.49,1.84-8.92,3.65-13.31,5.43c-4.11,1.68-8,3.23-11.66,4.68 c1.88,4.2,4.79,7.68,8.67,10.34c4.08,2.8,8.79,4.22,14.02,4.22c3.36,0,6.56-0.6,9.5-1.78c2.96-1.19,5.55-2.83,7.71-4.89l0.53-0.5 l5.09,4.89l-0.59,0.55c-2.8,2.6-6.15,4.68-9.95,6.19C173.27,176.91,169.19,177.68,164.95,177.68z M164.8,115.91 c-4.15,0-8.09,0.8-11.7,2.38c-3.61,1.58-6.8,3.77-9.47,6.49c-2.68,2.73-4.84,5.97-6.42,9.63s-2.38,7.62-2.38,11.77 c0,4.17,0.78,8.1,2.31,11.7c1.53,3.6,3.68,6.79,6.41,9.46c2.72,2.67,5.96,4.83,9.63,6.42c3.66,1.58,7.62,2.38,11.77,2.38 c4.05,0,7.95-0.73,11.57-2.17c3.35-1.33,6.33-3.13,8.87-5.35l-2.86-2.75c-2.19,1.96-4.76,3.54-7.66,4.71 c-3.12,1.25-6.51,1.89-10.07,1.89c-5.54,0-10.54-1.51-14.88-4.49c-4.34-2.99-7.54-6.93-9.52-11.73l-0.3-0.72l0.72-0.28 c3.87-1.53,7.99-3.18,12.38-4.97c4.38-1.78,8.82-3.59,13.3-5.43c4.48-1.84,8.87-3.62,13.15-5.35c4-1.62,7.75-3.11,11.22-4.46 c-2.19-5.45-5.49-10.01-9.82-13.58C176.58,117.78,171.11,115.91,164.8,115.91z M139.47,153.36l-0.19-0.91 c-0.21-1.03-0.39-2.06-0.54-3.1c-0.16-1.03-0.24-2.15-0.24-3.33c0-3.56,0.69-6.98,2.05-10.16c1.35-3.18,3.24-5.99,5.59-8.34 c2.35-2.35,5.15-4.25,8.33-5.66c3.19-1.41,6.66-2.13,10.32-2.13c4.83,0,9.11,1.28,12.74,3.81c3.61,2.51,6.4,5.91,8.29,10.1 l0.32,0.71l-0.72,0.3c-3.37,1.42-6.96,2.91-10.79,4.44c-3.82,1.53-7.7,3.08-11.62,4.66c-3.93,1.59-7.82,3.16-11.69,4.75 c-3.88,1.58-7.54,3.08-11.01,4.51L139.47,153.36z M164.8,121.26c-3.45,0-6.71,0.67-9.71,2c-3.01,1.33-5.65,3.13-7.87,5.34 c-2.22,2.22-3.99,4.86-5.27,7.86c-1.28,3-1.92,6.21-1.92,9.57c0,1.1,0.07,2.14,0.22,3.1c0.11,0.7,0.22,1.41,0.35,2.11 c3.21-1.32,6.59-2.71,10.15-4.15c3.87-1.59,7.77-3.16,11.7-4.75c3.92-1.58,7.8-3.14,11.62-4.66c3.54-1.42,6.88-2.79,10.03-4.12 c-1.76-3.61-4.26-6.55-7.43-8.76C173.3,122.45,169.31,121.26,164.8,121.26z"></path> <path class="st0" d="M164.95,182.68c-5.04,0-9.87-0.98-14.36-2.92c-4.4-1.9-8.31-4.51-11.62-7.75c-3.35-3.3-5.99-7.19-7.85-11.59 c-1.87-4.41-2.82-9.2-2.82-14.25c0-5.04,0.98-9.87,2.92-14.36c1.92-4.42,4.52-8.33,7.75-11.61c3.23-3.3,7.11-5.96,11.51-7.89 c4.46-1.95,9.27-2.93,14.32-2.93c7.86,0,14.73,2.37,20.41,7.05c5.4,4.45,9.45,10.17,12.05,17.01l2.02,5.32l-5.3,2.09 c-3.67,1.43-7.66,3.01-11.87,4.71l-3.95,1.6c-3.01,1.22-6.07,2.46-9.17,3.74c-4.5,1.84-8.93,3.66-13.33,5.44 c-2.14,0.88-4.24,1.72-6.19,2.5c1.18,1.42,2.56,2.68,4.14,3.76c3.23,2.22,7,3.34,11.19,3.34c2.72,0,5.29-0.48,7.64-1.42 c2.37-0.95,4.43-2.25,6.12-3.87l4.01-3.79l12.33,11.85l-4.46,4.15c-3.25,3.02-7.13,5.44-11.51,7.18 C174.5,181.8,169.8,182.68,164.95,182.68z M164.8,126.26c-2.75,0-5.33,0.53-7.68,1.57c-2.43,1.07-4.57,2.52-6.37,4.31 c-1.76,1.76-3.17,3.87-4.2,6.28c-0.75,1.75-1.22,3.61-1.42,5.55c1.22-0.5,2.47-1.01,3.74-1.52c3.13-1.29,6.3-2.57,9.49-3.86 l2.21-0.89c3.93-1.59,7.82-3.15,11.65-4.67c1.5-0.6,2.95-1.19,4.33-1.75c-0.83-0.89-1.74-1.68-2.74-2.38 C171.3,127.15,168.27,126.26,164.8,126.26z"></path> </g> </g> <g> <g> <path class="st0" d="M216.8,176.61h-6.88V59.18h6.88V176.61z M211.45,175.08h3.82V60.71h-3.82V175.08z"></path> <rect x="204.92" y="54.18" class="st0" width="16.88" height="127.43"></rect> </g> </g> <g> <g> <path class="st0" d="M244.78,176.61h-6.88V59.18h6.88V176.61z M239.43,175.08h3.82V60.71h-3.82V175.08z"></path> <rect x="232.9" y="54.18" class="st0" width="16.88" height="127.43"></rect> </g> </g> <g> <path class="st1" d="M296.27,177.83c-4.33,0-8.32-0.42-11.86-1.24c-3.57-0.82-6.77-1.84-9.54-3.03c-2.76-1.17-5.18-2.37-7.19-3.56 c-1.98-1.16-3.53-2.05-4.64-2.66l-0.67-0.37l3.82-7.08l0.7,0.48c1.59,1.1,3.54,2.24,5.8,3.39c2.24,1.15,4.68,2.22,7.26,3.18 c2.56,0.95,5.28,1.74,8.07,2.34c5.96,1.28,11.96,1.25,18.29-0.53c3.36-0.94,6.48-2.4,9.25-4.32c2.74-1.91,5.04-4.4,6.81-7.41 c1.75-2.97,2.64-6.56,2.64-10.7c0-3.92-0.79-7.29-2.35-10.01c-1.57-2.75-3.69-5.12-6.29-7.03c-2.65-1.95-5.68-3.67-9.02-5.11 c-3.36-1.46-6.9-2.87-10.51-4.19c-3.69-1.35-7.25-2.75-10.58-4.14c-3.45-1.44-6.58-3.16-9.32-5.13c-2.78-1.99-5.03-4.38-6.7-7.1 c-1.7-2.76-2.56-6.19-2.56-10.19c0-3.67,0.77-7.2,2.29-10.49c1.51-3.28,3.68-6.2,6.46-8.66c2.76-2.45,6.11-4.4,9.95-5.8 c5.78-2.11,12.58-2.64,20.32-1.57c2.62,0.36,5.24,0.83,7.78,1.39c2.56,0.56,4.98,1.21,7.18,1.93c2.2,0.72,4.06,1.46,5.52,2.18 l0.66,0.33l-2.91,6.39l-0.68-0.29c-3.13-1.31-6.92-2.5-11.27-3.55c-8.27-2-16.75-2.22-23.19-0.02c-3.06,1.03-5.68,2.43-7.79,4.15 c-2.09,1.7-3.72,3.72-4.84,6.01c-1.12,2.27-1.68,4.75-1.68,7.38c0,3.08,0.77,5.7,2.3,7.81c1.56,2.15,3.67,4.04,6.27,5.61 c2.66,1.6,5.7,3.05,9.05,4.3c3.41,1.28,6.93,2.57,10.54,3.89c3.66,1.35,7.24,2.88,10.63,4.55c3.45,1.7,6.6,3.79,9.34,6.23 c2.77,2.46,5.01,5.42,6.68,8.8c1.68,3.4,2.52,7.61,2.52,12.49c0,4.8-0.87,9.17-2.59,13.01c-1.73,3.86-4.24,7.19-7.47,9.91 c-3.21,2.69-7.1,4.8-11.56,6.26C306.75,177.09,301.73,177.83,296.27,177.83z M264.43,166.37c1.05,0.59,2.39,1.36,4.02,2.32 c1.96,1.16,4.32,2.32,7.02,3.47c2.68,1.15,5.8,2.14,9.28,2.94c3.43,0.8,7.31,1.2,11.52,1.2c5.3,0,10.16-0.7,14.45-2.1 c4.28-1.4,8-3.41,11.05-5.98c3.05-2.56,5.43-5.71,7.06-9.36c1.63-3.63,2.45-7.8,2.45-12.38c0-4.65-0.8-8.62-2.37-11.82 s-3.7-6.01-6.32-8.33c-2.65-2.34-5.67-4.36-9-6c-3.34-1.65-6.87-3.15-10.48-4.48c-3.62-1.33-7.13-2.62-10.55-3.9 c-3.43-1.28-6.56-2.77-9.3-4.42c-2.78-1.68-5.04-3.7-6.72-6.02c-1.72-2.37-2.6-5.3-2.6-8.71c0-2.87,0.62-5.58,1.84-8.06 c1.22-2.49,2.99-4.69,5.25-6.53c2.25-1.83,5.03-3.32,8.26-4.41c6.73-2.29,15.5-2.09,24.05-0.02c4.12,0.99,7.76,2.12,10.82,3.35 l1.68-3.69c-1.28-0.59-2.84-1.19-4.65-1.78c-2.16-0.7-4.52-1.34-7.04-1.89c-2.51-0.55-5.08-1.01-7.66-1.36 c-7.49-1.03-14.05-0.54-19.58,1.49c-3.66,1.33-6.85,3.19-9.46,5.51c-2.62,2.32-4.67,5.06-6.09,8.16c-1.43,3.09-2.15,6.4-2.15,9.85 c0,3.71,0.79,6.87,2.33,9.39c1.56,2.55,3.68,4.79,6.29,6.66c2.65,1.9,5.68,3.57,9.02,4.96c3.31,1.39,6.85,2.78,10.52,4.12 c3.64,1.33,7.2,2.75,10.59,4.22c3.45,1.49,6.58,3.27,9.32,5.29c2.77,2.04,5.03,4.56,6.71,7.5c1.69,2.96,2.55,6.58,2.55,10.77 c0,4.41-0.96,8.27-2.86,11.47c-1.89,3.2-4.33,5.85-7.26,7.88c-2.91,2.03-6.18,3.55-9.71,4.55c-6.55,1.83-12.81,1.88-19.02,0.54 c-2.87-0.62-5.66-1.42-8.29-2.4s-5.12-2.08-7.42-3.25c-1.99-1.02-3.77-2.03-5.27-3.02L264.43,166.37z"></path> </g> <g> <path class="st1" d="M427.02,146.18c0-4.28,0.79-8.31,2.37-12.08s3.75-7.06,6.5-9.86s5.98-4.99,9.71-6.57 c3.72-1.58,7.72-2.37,12.01-2.37c3.26,0,6.29,0.46,9.1,1.38c2.8,0.92,5.33,2.14,7.57,3.67s4.18,3.29,5.81,5.28 c1.63,1.98,2.85,4.05,3.67,6.19c0-2.55,0.08-5.1,0.23-7.64c0.15-2.55,0.28-5.05,0.38-7.49h4.74v59.17c0,3.88-0.56,7.52-1.68,10.94 c-1.12,3.41-2.91,6.42-5.35,9.02c-2.45,2.6-5.63,4.66-9.56,6.19s-8.74,2.29-14.45,2.29c-4.69,0-9.15-0.87-13.38-2.6 c-4.24-1.74-8.79-4.94-13.69-9.63l3.37-3.67c2.24,2.24,4.41,4.05,6.5,5.42c2.09,1.38,4.1,2.45,6.04,3.21 c1.94,0.76,3.79,1.3,5.58,1.61c1.79,0.31,3.6,0.46,5.43,0.46c4.79,0,8.82-0.59,12.08-1.76s5.89-2.83,7.88-4.97 c1.98-2.14,3.44-4.66,4.35-7.57c0.92-2.91,1.43-6.14,1.53-9.71v-6.57c0-0.2,0.02-0.71,0.07-1.53c0.06-0.82,0.08-1.68,0.08-2.6 c0-0.91,0.02-1.78,0.08-2.6c0.05-0.81,0.08-1.32,0.08-1.53c-2.04,4.69-5.35,8.64-9.94,11.85s-10.09,4.82-16.51,4.82 c-4.28,0-8.28-0.79-12.01-2.37c-3.72-1.58-6.96-3.77-9.71-6.57s-4.92-6.06-6.5-9.79C427.81,154.46,427.02,150.46,427.02,146.18 M432.37,146.18c0,3.57,0.66,6.9,1.99,10.01c1.32,3.11,3.13,5.81,5.42,8.1c2.29,2.29,5.02,4.11,8.18,5.42 c3.16,1.33,6.52,1.99,10.09,1.99s6.93-0.66,10.09-1.99c3.16-1.32,5.89-3.13,8.18-5.42s4.1-4.99,5.43-8.1 c1.32-3.11,1.98-6.45,1.98-10.01c0-3.57-0.67-6.93-1.98-10.09c-1.33-3.16-3.13-5.88-5.43-8.18c-2.29-2.29-5.02-4.1-8.18-5.43 c-3.16-1.32-6.52-1.99-10.09-1.99s-6.94,0.66-10.09,1.99c-3.16,1.33-5.89,3.14-8.18,5.43s-4.1,5.02-5.42,8.18 C433.03,139.25,432.37,142.62,432.37,146.18"></path> </g> <g> <path class="st1" d="M379.01,177.68c-4.47,0-8.67-0.85-12.46-2.51c-3.79-1.65-7.13-3.92-9.94-6.73c-2.82-2.81-5.06-6.16-6.66-9.95 c-1.61-3.79-2.43-7.88-2.43-12.15c0-4.36,0.85-8.53,2.51-12.38c1.66-3.84,3.93-7.24,6.73-10.09c2.8-2.85,6.14-5.15,9.94-6.81 c3.8-1.67,7.95-2.51,12.31-2.51c3.12,0,6.12,0.45,8.94,1.34s5.4,2.13,7.69,3.69c2.28,1.55,4.31,3.37,6.04,5.41 c0.98,1.16,1.85,2.37,2.58,3.63c0.02-1.51,0.07-3,0.12-4.46c0.1-2.5,0.26-5.03,0.46-7.52l0.06-0.7h6.06v60.7h-6.73v-12.53 c-1.9,3.32-4.68,6.24-8.28,8.73C391.26,176.04,385.56,177.68,379.01,177.68z M379.01,116.06c-4.15,0-8.09,0.8-11.7,2.38 c-3.62,1.59-6.81,3.77-9.47,6.48c-2.67,2.72-4.83,5.96-6.42,9.63c-1.58,3.66-2.39,7.63-2.39,11.77c0,4.06,0.78,7.95,2.31,11.55 c1.53,3.61,3.66,6.8,6.33,9.47c2.68,2.68,5.87,4.83,9.48,6.41c3.6,1.58,7.59,2.38,11.85,2.38c6.24,0,11.64-1.55,16.08-4.6 c4.43-3.05,7.52-6.79,9.2-11.11l1.48-3.81v18.46h3.67v-57.64h-3.12c-0.18,2.24-0.31,4.51-0.4,6.76c-0.1,2.48-0.15,5.04-0.15,7.62 v3.89l-1.47-3.6c-0.88-2.16-2.16-4.23-3.77-6.14c-1.64-1.93-3.57-3.66-5.74-5.13c-2.17-1.48-4.62-2.65-7.29-3.5 C384.83,116.48,381.97,116.06,379.01,116.06z M379.16,172.47c-3.66,0-7.15-0.69-10.38-2.05c-3.23-1.34-6.06-3.23-8.43-5.59 c-2.35-2.35-4.23-5.15-5.59-8.34s-2.04-6.66-2.04-10.32c0-3.66,0.69-7.16,2.04-10.39s3.23-6.06,5.59-8.42 c2.35-2.35,5.19-4.24,8.43-5.6c6.49-2.72,14.3-2.72,20.78,0c3.24,1.36,6.09,3.24,8.49,5.59c2.4,2.34,4.31,5.18,5.68,8.43 c1.36,3.25,2.05,6.74,2.05,10.39c0,3.66-0.69,7.13-2.05,10.31c-1.37,3.2-3.28,6.01-5.68,8.35c-2.39,2.35-5.25,4.23-8.49,5.58 C386.31,171.79,382.81,172.47,379.16,172.47z M379.16,121.26c-3.45,0-6.74,0.65-9.79,1.93s-5.72,3.05-7.94,5.27 s-3.99,4.89-5.26,7.93c-1.28,3.05-1.92,6.34-1.92,9.8c0,3.45,0.65,6.72,1.92,9.72c1.28,3,3.05,5.65,5.26,7.86 c2.22,2.22,4.89,3.99,7.93,5.26c6.09,2.55,13.49,2.56,19.6,0c3.06-1.28,5.76-3.05,8.01-5.27c2.26-2.2,4.06-4.84,5.34-7.85 c1.28-3,1.92-6.27,1.92-9.71s-0.65-6.74-1.93-9.8c-1.29-3.06-3.08-5.72-5.34-7.93c-2.26-2.21-4.96-3.99-8.01-5.27 C385.91,121.9,382.61,121.26,379.16,121.26z"></path> </g> <g> <path class="st1" d="M536.65,177.68c-4.37,0-8.53-0.85-12.39-2.51c-3.85-1.67-7.24-3.93-10.09-6.73c-2.86-2.81-5.13-6.16-6.75-9.96 c-1.61-3.79-2.42-7.93-2.42-12.3s0.84-8.54,2.51-12.38c1.66-3.84,3.92-7.23,6.73-10.09c2.82-2.87,6.16-5.16,9.95-6.82 c3.8-1.66,7.94-2.51,12.31-2.51c6.68,0,12.47,1.99,17.23,5.91c4.72,3.89,8.27,8.91,10.55,14.92l0.27,0.71l-0.7,0.27 c-3.66,1.42-7.64,3-11.91,4.73c-4.28,1.74-8.66,3.51-13.15,5.35c-4.49,1.84-8.92,3.65-13.31,5.43c-4.11,1.68-7.99,3.23-11.66,4.68 c1.88,4.2,4.79,7.67,8.67,10.34c4.07,2.8,8.79,4.22,14.02,4.22c3.37,0,6.56-0.6,9.51-1.78s5.54-2.83,7.7-4.89l0.53-0.5l5.08,4.89 l-0.59,0.55c-2.8,2.6-6.14,4.68-9.94,6.19C544.97,176.91,540.89,177.68,536.65,177.68z M536.49,115.91c-4.15,0-8.09,0.8-11.69,2.38 c-3.61,1.58-6.8,3.76-9.48,6.49c-2.67,2.72-4.83,5.97-6.42,9.63c-1.58,3.65-2.38,7.62-2.38,11.77c0,4.17,0.77,8.1,2.3,11.7 c1.53,3.61,3.69,6.79,6.41,9.46c2.72,2.67,5.95,4.83,9.63,6.42c7.22,3.13,16,3.13,23.35,0.22c3.35-1.33,6.33-3.13,8.87-5.35 l-2.86-2.75c-2.19,1.96-4.76,3.54-7.65,4.71c-3.12,1.25-6.51,1.89-10.07,1.89c-5.54,0-10.55-1.51-14.88-4.49 c-4.34-2.99-7.54-6.94-9.52-11.73l-0.3-0.72l0.72-0.28c3.88-1.53,8-3.18,12.38-4.97c4.38-1.78,8.82-3.59,13.3-5.43 c4.49-1.84,8.87-3.62,13.15-5.35c4-1.62,7.75-3.11,11.22-4.47c-2.19-5.44-5.49-10.01-9.82-13.58 C548.27,117.78,542.81,115.91,536.49,115.91z M511.16,153.36l-0.19-0.91c-0.21-1.03-0.39-2.06-0.54-3.1 c-0.16-1.05-0.24-2.17-0.24-3.33c0-3.55,0.69-6.97,2.05-10.16c1.35-3.17,3.23-5.98,5.59-8.34c2.35-2.35,5.15-4.25,8.33-5.66 c3.2-1.41,6.67-2.13,10.33-2.13c4.83,0,9.11,1.28,12.75,3.81c3.61,2.51,6.4,5.91,8.29,10.1l0.32,0.71l-0.72,0.3 c-3.37,1.42-6.96,2.91-10.79,4.44c-3.82,1.53-7.7,3.08-11.61,4.66c-3.93,1.59-7.82,3.16-11.7,4.75c-3.88,1.58-7.54,3.08-11,4.51 L511.16,153.36z M536.49,121.26c-3.44,0-6.71,0.67-9.71,2s-5.65,3.13-7.86,5.34c-2.22,2.22-4,4.87-5.26,7.86 c-1.28,3-1.93,6.22-1.93,9.57c0,1.09,0.07,2.13,0.22,3.1c0.11,0.7,0.22,1.41,0.36,2.11c3.21-1.32,6.59-2.71,10.14-4.15 c3.88-1.59,7.77-3.16,11.7-4.75c3.92-1.58,7.8-3.14,11.62-4.66c3.54-1.42,6.88-2.79,10.03-4.12c-1.76-3.61-4.26-6.55-7.43-8.76 C544.99,122.45,541,121.26,536.49,121.26z"></path> </g> </svg> 