<?xml version="1.0" encoding="UTF-8"?> <!-- Generator: Adobe Illustrator 24.1.1, SVG Export Plug-In . SVG Version: 6.00 Build 0) --> <svg xmlns="http://www.w3.org/2000/svg" xmlns:xlink="http://www.w3.org/1999/xlink" version="1.1" id="Layer_1" x="0px" y="0px" viewBox="0 0 200 200" style="enable-background:new 0 0 200 200;" xml:space="preserve"> <style type="text/css"> .st0{fill:#85C73F;} </style> <path class="st0" d="M158.3,87.5c4.6,19.9-1.3,40.7-15.8,55.1s-35.3,20.4-55.1,15.8L158.3,87.5z M81.8,164 c6.2,1.9,12.7,2.9,19.2,2.9c20.9-0.1,40.5-10,52.9-26.7S170,101.8,164,81.8l5.6-5.6c9.5,26.6,2.8,56.3-17.2,76.2 s-49.6,26.6-76.2,17.2L81.8,164z M193.1,118.5c-3.6,2.8-5,7.7-3.3,12c1.4,3.6,1.3,7.6-0.4,11.1c-1.7,3.5-4.7,6.3-8.4,7.5 c-4.4,1.5-7.2,5.6-7.2,10.2c0.1,3.8-1.4,7.5-4.1,10.3c-2.7,2.7-6.4,4.3-10.2,4.3h-0.5c-4.5,0-8.5,2.9-10,7.2c-1.3,3.7-4,6.7-7.5,8.4 c-3.5,1.7-7.5,1.8-11.1,0.4c-4.3-1.6-9.1-0.3-12,3.3c-2.4,3.1-6,5-9.8,5.4c-3.8,0.4-7.6-0.9-10.5-3.4c-1.9-1.7-4.3-2.6-6.9-2.6 c-1.9,0-3.9,0.5-5.5,1.6c-3.3,2.1-7.3,2.7-11,1.7c-3.7-0.9-6.9-3.4-8.7-6.8c-1-1.9-2.7-3.5-4.7-4.4l9.4-9.4 c29.8,12,63.8,5.1,86.5-17.6c22.7-22.7,29.6-56.8,17.6-86.5l9.4-9.5c0.9,2,2.5,3.6,4.4,4.7c3.4,1.8,5.9,4.9,6.8,8.7 c1,3.8,0.4,7.8-1.7,11c-2.4,3.9-2,8.9,1,12.4c2.6,2.9,3.8,6.7,3.4,10.5C198.1,112.5,196.1,116.1,193.1,118.5z"></path> <path class="st0" d="M43.2,114c-4.6-19.9,1.3-40.7,15.8-55.1S94.2,38.5,114,43.2L43.2,114z M119.7,37.5C96.4,30.4,71.2,36.8,54,54 c-17.2,17.2-23.5,42.5-16.5,65.7l-5.6,5.6C22.4,98.7,29.1,69,49,49.1s49.6-26.6,76.3-17.2L119.7,37.5z M8.4,83c3.6-2.8,5-7.7,3.3-12 c-1.4-3.6-1.3-7.6,0.4-11.1c1.7-3.5,4.7-6.3,8.4-7.5c4.4-1.5,7.2-5.6,7.2-10.2c-0.1-3.8,1.4-7.5,4.1-10.3s6.4-4.3,10.2-4.3h0.5 c4.5,0,8.5-2.9,10-7.2c1.3-3.7,4-6.7,7.5-8.4c3.5-1.7,7.5-1.8,11.1-0.4c4.3,1.6,9.1,0.3,12-3.3c2.4-3.1,6-5,9.8-5.4 c3.8-0.4,7.6,0.9,10.5,3.4c3.4,3.1,8.5,3.5,12.4,1.1c3.3-2.1,7.3-2.7,11-1.7c3.7,0.9,6.9,3.4,8.7,6.8c1,1.9,2.7,3.5,4.7,4.4 l-9.4,9.4c-29.8-12-63.8-5.1-86.5,17.6s-29.6,56.8-17.6,86.5l-9.5,9.4c-0.9-2-2.5-3.6-4.4-4.7c-3.4-1.8-5.9-4.9-6.8-8.7 c-1-3.8-0.4-7.8,1.7-11c2.4-3.9,2-8.9-1-12.4c-2.5-2.9-3.8-6.7-3.5-10.5C3.4,89,5.4,85.4,8.4,83z"></path> <path class="st0" d="M47.6,175.3c1.1,0.6,2.5,0.4,3.5-0.3s1.6-1.9,1.5-3.2c-0.1-1.3-0.9-2.3-2.1-2.8l-27.1-12.3 c-1.3-0.6-2.9-0.3-3.9,0.7c-1,1-1.3,2.6-0.7,3.9l12.3,27.1c0.5,1.2,1.6,2,2.8,2.1s2.5-0.4,3.2-1.5s0.8-2.4,0.3-3.5l-2.1-4.6l7.7-7.7 L47.6,175.3z M32.3,174.1l-3.3-7.3l7.3,3.3L32.3,174.1z"></path> <path class="st0" d="M58.9,165.8c1.4,0,2.7-0.9,3.2-2.1c0.5-1.3,0.2-2.8-0.8-3.8l-7.4-7.4l2.5-2.5c4.1-4.1,4.1-10.7,0-14.8 s-10.7-4.1-14.8,0l-2.5,2.5c-1.3,1.3-2,3.1-2,4.9c0,1.9,0.7,3.6,2,4.9l7.3,7.3l0,0l9.9,9.9C57.1,165.4,58,165.8,58.9,165.8z M51.5,145.1l-2.5,2.5l-4.9-4.9l2.5-2.5c0.9-0.9,2.2-1.2,3.4-0.9s2.1,1.3,2.5,2.5C52.8,142.9,52.4,144.2,51.5,145.1z"></path> <path class="st0" d="M78.6,146.1c1.4,0,2.7-0.9,3.2-2.1c0.5-1.3,0.2-2.8-0.8-3.8l-7.4-7.4l2.5-2.5c4-4.1,3.9-10.6-0.1-14.6 s-10.5-4.1-14.6-0.1l-2.5,2.5c-2.7,2.7-2.7,7.1,0,9.8L76.2,145C76.8,145.7,77.7,146.1,78.6,146.1z M71.2,125.4l-2.5,2.5l-4.9-4.9 l2.5-2.5c1.4-1.3,3.5-1.3,4.9,0C72.5,121.8,72.5,124,71.2,125.4z"></path> <path class="st0" d="M111.6,113.1c0-1.9-1.6-3.5-3.5-3.5H96.7c3.4-4.4,2.8-10.6-1.4-14.2S85,91.9,81.1,95.8l-2.5,2.5 c-2.7,2.7-2.7,7.1,0,9.8l17.2,17.2c1.4,1.3,3.5,1.3,4.8-0.1c1.3-1.3,1.4-3.5,0.1-4.8l-3.9-3.9h11.3 C110.1,116.5,111.6,115,111.6,113.1z M90.9,105.7l-2.5,2.5l-4.9-4.9l2.5-2.5c0.9-0.9,2.2-1.2,3.4-0.9s2.1,1.3,2.5,2.5 C92.1,103.5,91.8,104.8,90.9,105.7z"></path> <path class="st0" d="M125.4,100.8c4.1-4.1,4.1-10.7,0-14.8l-9.8-9.8c-4.1-3.9-10.6-3.9-14.8,0c-4.1,4.1-4.1,10.7,0,14.8l9.8,9.8 c2,2,4.6,3.1,7.4,3.1S123.4,102.7,125.4,100.8z M105.7,86c-0.9-0.9-1.3-2.2-0.9-3.4c0.3-1.2,1.3-2.2,2.5-2.5s2.5,0,3.4,0.9l9.8,9.8 c0.9,0.9,1.2,2.2,0.9,3.4s-1.3,2.1-2.5,2.5s-2.5,0-3.4-0.9L105.7,86z"></path> <path class="st0" d="M142.6,82.1c1.3,0,2.4-0.7,3-1.8s0.6-2.4,0-3.5l-14.8-24.6c-1-1.7-3.1-2.2-4.8-1.2s-2.2,3.1-1.2,4.8l7.6,12.7 l-12.7-7.6c-1.7-1-3.8-0.5-4.8,1.2s-0.4,3.8,1.2,4.8l24.6,14.8C141.3,81.9,142,82.1,142.6,82.1z"></path> <path class="st0" d="M157.4,67.3c0.9,0,1.8-0.4,2.4-1l9.9-9.8c1.4-1.3,1.4-3.5,0.1-4.9c-1.3-1.4-3.6-1.4-4.9,0l-7.5,7.3l-4.9-5 l4.9-4.9c0.9-0.9,1.3-2.2,0.9-3.4s-1.3-2.2-2.5-2.5c-1.2-0.3-2.5,0-3.4,1l-4.9,4.9l-4.9-4.9l7.4-7.4c1.3-1.4,1.3-3.5,0-4.9 s-3.5-1.4-4.9,0l-9.8,9.8c-1.4,1.4-1.4,3.6,0,4.9l9.8,9.8l9.9,9.9C155.6,66.9,156.4,67.3,157.4,67.3z"></path> <path class="st0" d="M177.1,47.6c0.9,0,1.8-0.4,2.5-1l2.5-2.5c5.4-5.4,5.4-14.3,0-19.7l-4.9-4.9c-5.4-5.4-14.3-5.4-19.7,0l-2.5,2.5 c-1.4,1.4-1.4,3.6,0,4.9l19.7,19.7C175.2,47.3,176.1,47.6,177.1,47.6z M172.1,24.5l4.9,4.9c2.7,2.7,2.7,7.1,0,9.8l-14.8-14.8 C165,21.8,169.4,21.8,172.1,24.5z"></path> </svg> 